<svg width="24" height="24" viewBox="0 0 24 24" fill="none" xmlns="http://www.w3.org/2000/svg">
<path d="M18.71 7.71C18.31 8.11 17.69 8.11 17.29 7.71C16.89 7.31 16.89 6.69 17.29 6.29C17.69 5.89 18.31 5.89 18.71 6.29C19.11 6.69 19.11 7.31 18.71 7.71ZM20.5 14.5C20.5 16.71 18.71 18.5 16.5 18.5C14.29 18.5 12.5 16.71 12.5 14.5C12.5 12.29 14.29 10.5 16.5 10.5C18.71 10.5 20.5 12.29 20.5 14.5ZM16.5 8.5C14.29 8.5 12.5 6.71 12.5 4.5C12.5 2.29 14.29 0.5 16.5 0.5C18.71 0.5 20.5 2.29 20.5 4.5C20.5 6.71 18.71 8.5 16.5 8.5Z" fill="#FFFFFF"/>
</svg>