<svg width="24" height="24" viewBox="0 0 24 24" fill="none" xmlns="http://www.w3.org/2000/svg">
<path d="M24 12C24 5.37258 18.6275 0 12 0C5.37258 0 0 5.37258 0 12C0 17.9905 3.95469 22.9541 9.17188 23.8545V15.4727H7.07692V12H9.17188V10.45C9.17188 7.43497 10.2719 6.34999 13.0469 6.34999C14.4679 6.34999 14.8319 6.58499 14.8319 6.58499V9.71999H13.2068C12.7719 9.71999 12.5519 9.93999 12.5519 10.3599V12H14.8319L14.4319 15.4727H12.5519V23.8545C17.7441 22.9541 21.7 17.9905 21.7 12H24Z" fill="#FFFFFF"/>
</svg>