<svg width="18" height="18" viewBox="0 0 18 18" fill="none" xmlns="http://www.w3.org/2000/svg">
<path d="M17.64 9.20455C17.64 8.56636 17.5827 7.95273 17.4764 7.36364H9V10.845H13.8436C13.635 11.97 13.0009 12.9232 12.0477 13.5614V15.8195H14.9564C16.6582 14.2527 17.64 11.9455 17.64 9.20455Z" fill="#4285F4"/>
<path d="M9 18C11.43 18 13.4673 17.1941 14.9564 15.8195L12.0477 13.5614C11.2418 14.1014 10.2109 14.4205 9 14.4205C6.87273 14.4205 5.09545 13.0191 4.32727 11.1068H1.36636V13.3914C2.72727 15.5682 4.87273 17 9 17Z" fill="#34A853"/>
<path d="M4.32727 11.1068C4.04545 10.5182 3.90909 9.86364 3.90909 9.18182C3.90909 8.5 4.04545 7.84545 4.32727 7.25682V4.97218H1.36636C0.636364 6.66818 0.181818 8.88182 0.181818 11.1818C0.181818 13.4818 0.636364 15.6955 1.36636 17.3915L4.32727 11.1068Z" fill="#FBBC05"/>
<path d="M9 3.63636C10.3114 3.63636 11.5073 4.10636 12.4405 5.06636L15.0218 2.58545C13.4633 1.01909 11.4236 0.181818 9 0.181818C5.37273 0.181818 2.72727 2.28636 1.36636 5.36364L4.32727 7.25682C5.09545 5.06273 6.87273 3.63636 9 3.63636Z" fill="#EA4335"/>
</svg>