<?xml version="1.0" standalone="no"?>
<!DOCTYPE svg PUBLIC "-//W3C//DTD SVG 20010904//EN"
 "http://www.w3.org/TR/2001/REC-SVG-20010904/DTD/svg10.dtd">
<svg version="1.0" xmlns="http://www.w3.org/2000/svg"
 width="425.000000pt" height="425.000000pt" viewBox="0 0 425.000000 425.000000"
 preserveAspectRatio="xMidYMid meet">

<g transform="translate(0.000000,425.000000) scale(0.100000,-0.100000)"
fill="#000000" stroke="none">
<path d="M1845 3710 c-2 -4 -12 -80 -22 -169 -9 -89 -20 -166 -24 -172 -3 -6
-132 -44 -285 -85 -153 -41 -319 -86 -367 -99 -49 -13 -90 -25 -91 -27 -2 -2
1 -17 6 -35 8 -30 10 -31 41 -23 17 5 175 48 350 95 175 47 323 85 328 83 6
-2 -61 -23 -148 -47 -87 -24 -225 -62 -306 -84 l-148 -41 7 -30 c3 -17 7 -32
9 -34 1 -1 132 33 291 76 159 44 291 77 293 75 13 -11 -40 -28 -300 -98 l-286
-77 10 -34 c7 -24 15 -33 26 -29 22 6 479 130 514 139 19 4 27 3 27 -7 0 -9
-116 -45 -362 -111 -200 -54 -414 -112 -476 -129 l-114 -31 6 -30 c4 -16 8
-31 10 -33 2 -2 210 52 462 120 338 91 460 121 462 111 2 -7 -6 -93 -17 -191
-37 -320 -41 -352 -101 -902 -33 -299 -61 -546 -63 -547 -2 -2 -60 106 -129
239 -85 161 -141 283 -168 365 l-42 122 -34 0 c-25 0 -34 -4 -34 -17 0 -10 -3
-13 -9 -7 -11 12 -51 133 -51 156 0 10 -6 21 -13 24 -19 7 -70 -14 -62 -25 5
-9 -14 -443 -31 -696 l-7 -100 -42 110 c-410 1073 -485 1268 -489 1272 -6 7
-56 -20 -56 -30 0 -10 271 -724 522 -1376 70 -182 74 -239 9 -111 -39 75 -195
470 -606 1535 -70 182 -129 332 -131 334 -3 3 -64 -19 -64 -23 0 -3 50 -132
205 -531 89 -231 166 -431 169 -445 4 -14 -55 97 -130 245 -75 149 -137 271
-139 273 -5 5 -55 -21 -55 -29 0 -5 148 -307 329 -671 221 -447 348 -715 389
-823 34 -88 62 -169 64 -180 5 -36 18 -42 65 -31 24 5 43 15 43 22 0 7 8 10
19 7 26 -7 61 14 61 35 -1 28 94 492 100 492 3 0 23 -53 44 -118 182 -568 219
-672 235 -672 31 0 43 18 47 71 3 29 6 54 7 56 2 1 14 -28 27 -65 13 -37 24
-68 26 -70 1 -2 20 2 42 9 35 10 41 16 46 48 3 20 6 53 6 74 0 42 12 48 27 14
9 -19 17 -23 41 -19 l30 4 7 86 c6 88 45 555 131 1597 26 314 48 571 49 573 2
2 83 25 181 51 172 46 179 49 176 72 -2 13 -7 28 -12 33 -5 5 -79 -10 -169
-34 -145 -39 -192 -45 -165 -22 5 5 164 50 354 101 190 50 352 95 361 99 13 6
14 14 7 39 -5 19 -14 31 -21 28 -6 -2 -164 -45 -350 -95 -296 -80 -366 -95
-346 -75 3 2 149 43 325 90 417 112 385 101 378 133 -4 15 -9 29 -11 31 -2 3
-41 -4 -86 -16 -103 -26 -486 -129 -549 -148 -27 -8 -48 -11 -48 -7 0 7 81 30
506 144 l72 20 -11 34 c-9 28 -14 33 -31 28 -12 -4 -133 -37 -271 -74 l-250
-67 -3 38 c-3 37 -5 39 -37 39 -32 0 -33 -1 -40 -50 -10 -73 -25 -61 -18 14 6
62 5 63 -21 70 -15 4 -31 4 -35 2 -5 -3 -12 -43 -17 -88 -4 -46 -9 -73 -11
-61 -3 12 3 83 11 157 9 74 16 139 16 144 0 11 -59 22 -65 12z m125 -474 c0
-3 -4 -8 -10 -11 -5 -3 -10 -1 -10 4 0 6 5 11 10 11 6 0 10 -2 10 -4z m-10
-95 c0 -6 -4 -13 -10 -16 -5 -3 -10 1 -10 9 0 9 5 16 10 16 6 0 10 -4 10 -9z
m-90 -25 c0 -3 -4 -8 -10 -11 -5 -3 -10 -1 -10 4 0 6 5 11 10 11 6 0 10 -2 10
-4z m41 -567 c-23 -266 -45 -540 -51 -609 -37 -472 -81 -964 -85 -968 -17 -18
-14 74 14 402 137 1616 140 1657 148 1669 5 8 8 8 10 0 2 -6 -14 -228 -36
-494z m-55 424 c-3 -27 -21 -235 -41 -463 -19 -228 -46 -545 -60 -705 -14
-159 -30 -353 -36 -430 -6 -77 -14 -167 -18 -200 l-7 -60 -29 56 -28 57 97
883 c54 486 99 890 101 897 3 6 10 12 16 12 8 0 10 -15 5 -47z m-751 -1338
c-33 -221 -34 -226 -29 -120 6 151 13 274 21 375 l6 85 18 -55 19 -55 -35
-230z m135 214 c13 -49 7 -75 -9 -36 -19 49 -24 77 -12 77 5 0 15 -18 21 -41z
m-34 -184 c4 -14 3 -45 0 -68 -13 -85 -80 -397 -84 -393 -7 7 62 486 70 486 4
0 10 -11 14 -25z m218 -346 c64 -185 116 -347 116 -360 -1 -74 -21 -37 -79
143 -34 106 -87 268 -117 359 -50 156 -66 226 -45 204 5 -6 61 -161 125 -346z
m124 -76 c12 -24 16 -47 12 -63 -6 -25 -13 -9 -67 150 -7 21 32 -41 55 -87z
m-431 -75 c-3 -8 -6 -5 -6 6 -1 11 2 17 5 13 3 -3 4 -12 1 -19z m543 -138 c21
-41 28 -152 11 -179 -15 -24 -63 138 -55 187 7 48 16 46 44 -8z"/>
<path d="M3026 3483 c-9 -93 -20 -178 -23 -190 -5 -21 -38 -41 -50 -30 -3 3 1
53 7 112 7 58 11 107 9 109 -2 2 -17 6 -34 8 l-30 3 -15 -129 c-10 -88 -19
-131 -28 -134 -11 -3 -13 9 -7 64 4 38 9 76 11 85 3 12 -4 18 -28 22 -18 2
-35 3 -37 1 -2 -2 -8 -46 -14 -99 l-10 -95 -41 -11 c-183 -48 -201 -55 -204
-74 -1 -11 2 -26 7 -34 8 -12 26 -10 116 13 99 26 132 28 109 7 -8 -8 -111
-38 -339 -100 -68 -18 -70 -19 -67 -47 2 -16 6 -31 8 -33 4 -5 119 24 297 73
52 14 87 20 84 13 -2 -6 -50 -23 -106 -38 -57 -15 -105 -30 -108 -33 -3 -2 -2
-19 2 -36 5 -22 11 -30 23 -26 117 33 175 47 180 42 6 -7 -46 -497 -57 -536
-8 -26 -2 -24 -255 -91 -36 -10 -38 -12 -32 -41 3 -18 8 -33 9 -35 3 -2 181
43 250 63 13 4 17 -1 17 -25 0 -27 -5 -31 -37 -40 -298 -77 -285 -72 -278
-100 3 -14 12 -31 19 -36 7 -6 17 -25 20 -43 4 -17 11 -32 14 -32 4 0 58 14
120 31 62 17 114 30 116 28 1 -2 -6 -76 -16 -164 -25 -220 -87 -770 -99 -880
-5 -49 -20 -180 -33 -290 -12 -110 -21 -203 -19 -207 2 -5 17 -8 33 -8 23 0
31 5 34 23 3 12 28 227 56 477 100 907 119 1063 129 1073 17 17 14 -24 -19
-315 -17 -145 -46 -405 -66 -578 -19 -173 -42 -371 -49 -440 -8 -69 -15 -131
-15 -137 0 -8 14 -13 35 -13 19 0 35 4 35 8 0 4 16 145 34 312 19 168 51 449
71 625 62 548 63 558 77 566 19 13 38 11 38 -4 0 -7 -18 -172 -40 -367 -22
-195 -49 -434 -60 -530 -11 -96 -26 -233 -34 -305 -9 -71 -16 -133 -16 -137 0
-5 16 -8 35 -8 19 0 35 1 35 3 0 1 16 141 35 312 72 632 97 853 108 959 l12
110 503 135 c276 75 502 139 502 144 0 4 0 16 0 27 0 11 -8 24 -17 28 -11 4
-19 19 -20 36 -1 16 -5 31 -8 34 -3 3 -83 -16 -177 -41 -95 -26 -305 -82 -466
-125 l-293 -79 3 31 c3 30 5 32 103 57 155 41 774 208 831 225 47 13 51 17 46
40 -2 14 -11 28 -18 31 -11 4 -159 -34 -664 -171 -47 -13 -129 -36 -183 -51
-54 -14 -101 -25 -103 -22 -6 6 57 551 65 559 3 3 233 68 511 142 278 75 512
140 521 144 13 5 14 14 7 39 -5 19 -13 30 -21 28 -43 -17 -1012 -273 -1016
-270 -2 3 -2 8 1 11 3 3 200 58 437 121 l432 117 -7 30 c-3 17 -8 32 -9 34 -2
2 -190 -47 -419 -109 -229 -62 -419 -109 -423 -106 -4 4 -2 11 3 16 5 5 137
44 294 86 474 127 723 196 730 200 9 6 0 54 -11 60 -4 3 -74 -13 -156 -36 -81
-22 -188 -52 -238 -65 -49 -13 -205 -55 -345 -92 -236 -64 -255 -68 -258 -50
-2 10 4 77 12 148 23 188 23 190 -17 190 l-33 0 -18 -167z m-36 -307 c0 -7
-11 -16 -25 -18 -24 -5 -34 10 -18 25 12 12 43 7 43 -7z m-126 -31 c-6 -16
-24 -21 -24 -7 0 11 11 22 21 22 5 0 6 -7 3 -15z m116 -64 c0 -9 -24 -21 -41
-21 -16 0 -10 18 9 23 28 8 32 7 32 -2z m-130 -41 c0 -5 -4 -10 -10 -10 -5 0
-10 5 -10 10 0 6 5 10 10 10 6 0 10 -4 10 -10z m116 -92 c-3 -24 -17 -146 -31
-273 -14 -126 -28 -236 -30 -242 -2 -7 -16 -13 -30 -13 -20 0 -25 4 -21 18 2
9 17 132 32 272 15 140 32 261 37 268 5 6 18 12 29 12 18 0 20 -5 14 -42z
m-126 -5 c0 -18 -44 -416 -56 -505 -4 -31 -11 -48 -20 -48 -10 0 -13 8 -9 23
2 12 16 126 30 252 14 127 27 245 30 263 6 33 25 45 25 15z m1027 -469 c-3 -3
-12 -4 -19 -1 -8 3 -5 6 6 6 11 1 17 -2 13 -5z m-260 -70 c-3 -3 -12 -4 -19
-1 -8 3 -5 6 6 6 11 1 17 -2 13 -5z m-713 -81 c-8 -34 -4 -29 -31 -37 -20 -7
-23 -4 -23 23 0 20 6 31 18 34 38 10 43 8 36 -20z m453 11 c-3 -3 -12 -4 -19
-1 -8 3 -5 6 6 6 11 1 17 -2 13 -5z m-591 -72 c-15 -15 -16 -14 -16 15 0 17 6
33 13 36 18 6 21 -33 3 -51z"/>
</g>
</svg>
